PathFileType	4	(X/Y/Z)	Patient4_TMGait_0pt7_02_right_35.trc.trc
DataRate	CameraRate	NumFrames	NumMarkers	Units	OrigDataRate	OrigDataStartFrame	OrigNumFrames
88.050314465409	88.050314465409	4	33	mm	88.050314465409	53	       141
Frame#	Time	Sacral			L.Shoulder			Chest			R.Shoulder			Neck			R.ASIS			L.ASIS			R.Thigh.Superior			R.Thigh.Lateral			R.Thigh.Inferior			R.Patella			L.Thigh.Superior			L.Thigh.Lateral			L.Thigh.Inferior			L.Patella			L.Shank.Superior			L.Shank.Lateral			L.Shank.Inferior			R.Shank.Superior			R.Shank.Lateral			R.Shank.Inferior			R.Heel			R.Midfoot.Superior			R.Midfoot.Lateral			R.Toe			L.Heel			L.Midfoot.Lateral			L.Midfoot.Superior			L.Toe			L.Elbow			L.Wrist			R.Elbow			R.Wrist			
		X1	Y1	Z1	X2	Y2	Z2	X3	Y3	Z3	X4	Y4	Z4	X5	Y5	Z5	X6	Y6	Z6	X7	Y7	Z7	X8	Y8	Z8	X9	Y9	Z9	X10	Y10	Z10	X11	Y11	Z11	X12	Y12	Z12	X13	Y13	Z13	X14	Y14	Z14	X15	Y15	Z15	X16	Y16	Z16	X17	Y17	Z17	X18	Y18	Z18	X19	Y19	Z19	X20	Y20	Z20	X21	Y21	Z21	X22	Y22	Z22	X23	Y23	Z23	X24	Y24	Z24	X25	Y25	Z25	X26	Y26	Z26	X27	Y27	Z27	X28	Y28	Z28	X29	Y29	Z29	X30	Y30	Z30	X31	Y31	Z31	X32	Y32	Z32	X33	Y33	Z33	

53	40.090571428571	810.326603737582	1025.635503942838	525.111674718976	1022.451442474054	1421.999064790431	312.550142986959	1135.398715153193	1342.078441180082	463.573166532648	1086.678892216047	1435.208203628890	640.742913452355	1054.562079889367	1485.766591094513	461.481886142070	1036.904170871942	938.024714087663	628.010835143917	1007.292693627947	958.431934793682	355.841265836558	1062.846944094796	737.473176433711	603.367640896997	975.351225185776	636.110764862778	663.522037918024	1046.532568903054	579.337876726231	581.062200968013	1042.263002999366	494.193020778851	586.211148349654	1099.055049458492	804.980234104912	394.881258674057	1079.458829473526	679.027577193725	306.403538391577	1188.024969218119	627.403103226073	374.228992966990	1213.269279131455	537.825355087385	363.369773175717	1150.608459311409	464.921830892441	352.891374779685	1012.381196105742	415.649327186988	301.224587368710	1006.708247613186	285.346572433120	353.208831525781	1015.995603102857	407.280184519676	593.985827742917	946.203949682751	302.856463956909	655.867203786900	988.440738269669	208.533096221440	590.350496348395	854.737603795103	43.390140746256	559.935558044384	1027.243646846673	97.654751729205	595.372456540075	938.878300761643	36.892684334399	632.734239769527	1147.330831802881	42.336860709466	619.645724228790	820.479394215393	205.711129107932	385.923970600584	882.549645402126	169.397199916582	304.180446105190	986.356520653509	184.154720035311	327.970329836958	1072.616983069114	79.480723663004	294.537432885588	905.659115193590	1081.370328734933	229.491292497383	950.773045940405	822.036801658473	229.951243204171	1056.666958382599	1109.078884472238	805.665646929459	1234.716433266666	927.611294756983	753.028834430859	
54	40.101928571429	808.355542462738	1025.814263942823	525.720229072016	1020.712061078908	1421.445167810904	312.390757143052	1134.106315052344	1341.492071446591	463.022444065411	1086.262723195468	1434.834698610723	640.380481162517	1053.486075870176	1485.343126053156	461.187102783619	1035.197107782868	937.831649865682	628.146610204596	1005.013822557363	958.100775746182	355.906623823745	1059.527103628098	736.758450556143	603.384699681727	971.347622485071	635.942160803616	663.809912626696	1041.841688153962	578.539112737288	581.249580954582	1036.648982292815	493.632789647864	586.309386009796	1097.990831876469	807.739207668020	395.705911303129	1081.197090506608	681.748394733834	306.411350536046	1190.299845339996	632.019357688199	374.515210087488	1217.683459014664	543.353534447596	363.401609571187	1157.713900897029	468.762506614123	352.756861354119	1021.648867494938	413.753618619298	301.041267134747	1021.687571693882	283.090764482541	352.811937564662	1009.954875825144	406.825278153976	594.030771097514	939.773187109024	302.739768979681	656.012023406200	981.255367750029	208.209056550554	590.310817117680	846.765944860365	43.368940145937	559.957411956956	1019.249175601976	97.585905208877	595.365139278040	930.890884826911	36.865907753358	632.767961456127	1139.355894240938	42.229835005581	619.679099348324	839.126164224218	195.397032687604	385.576470906722	902.595969170619	161.856529295857	303.699637872239	1005.743225039057	181.063395586012	327.407232520802	1096.472860791251	80.220208813667	293.720605911374	900.151595878309	1081.673312569444	231.243923790445	928.673259837100	820.156731828600	233.144943448717	1065.465860333653	1108.639309326403	805.513448966330	1255.241545559542	942.781075525675	746.534815500270	
55	40.113285714286	806.460957364628	1025.976837369726	526.107431294776	1019.073958869426	1420.943486441078	312.147150644340	1132.849103267920	1340.941673895950	462.421511690509	1085.774274891207	1434.457881414539	639.959533788138	1052.401563982625	1484.937175915797	460.855523909092	1033.530653377042	937.652728575517	628.187738616885	1002.679587470294	957.515703467911	355.806592853241	1056.236244299793	736.025350259469	603.353386624012	967.246052152636	635.787848518739	664.019540243715	1037.064756396932	577.713702417059	581.419743859997	1030.943931040448	493.080067169565	586.374992806380	1096.694714594680	809.986615657972	396.260473650424	1082.249975660283	683.962951802428	306.338315588018	1191.823477322618	635.952159184584	374.576123312143	1221.161708939433	548.313231264465	363.304763872447	1164.045898657542	472.177538248699	352.546484426299	1030.625637528856	411.232847143775	300.631924591571	1036.604652035800	280.470070026635	352.285153900239	1003.820572164579	406.382570475352	594.027626175322	933.266675980543	302.639947018687	656.128300684664	974.028855927147	207.912581130709	590.262382635564	838.790115180149	43.359528759262	559.976412104201	1011.255832379934	97.521606164349	595.357117118160	922.900791279754	36.842553871916	632.794407087834	1131.371700928286	42.123194506484	619.702646879611	858.263461853217	184.480867947588	384.918083813257	923.185610994561	153.917822916411	303.021544151587	1025.358031366206	177.771037914612	326.790464311174	1120.631195146969	81.172540147305	293.051476083345	894.506879456261	1082.230674701499	232.797225869681	907.582325816825	819.703539564660	236.314389356846	1074.366347893270	1108.265215174227	804.759929921054	1274.725792135190	959.417358537169	739.358275874813	
56	40.124642857143	804.681429329018	1026.130582360228	526.277480414895	1017.549478463043	1420.509736373921	311.818445958908	1131.638264628304	1340.442731834008	461.769617337598	1085.227574596487	1434.096807598831	639.474975852390	1051.319055358930	1484.563601461516	460.485236657982	1031.915799417732	937.498762774141	628.139781279898	1000.415114070796	956.779571947300	355.563170039819	1052.949494693813	735.271051498845	603.281387441065	963.003139999035	635.660261763053	664.155161155530	1032.150454678806	576.867901533857	581.582733709697	1025.101433784069	492.543522531076	586.415092206230	1095.191393252891	811.694041103426	396.557119668371	1082.614113900511	685.613053111501	306.202546377472	1192.592045043150	639.107171595893	374.428091172599	1223.679254314705	552.604833840527	363.119927180206	1169.553370675278	475.100127950398	352.311387580886	1039.326646460617	408.091986552055	299.974453872428	1051.373775515160	277.537844010426	351.654556019698	997.548826566505	405.966222896860	593.981378510746	926.646074484362	302.565618336191	656.218898571324	966.742090845332	207.657921599985	590.209111800539	830.806009165076	43.364436608150	559.994121988744	1003.262874655840	97.463833771093	595.347766549123	914.906692134175	36.824109563469	632.813002346323	1123.375628474220	42.021437657636	619.719346456168	877.812940262206	173.110897915520	383.886654179229	944.265677113445	145.714199328485	302.139730600432	1045.096373147560	174.372055622169	326.166356892475	1144.936105798159	82.444589704215	292.680468306603	888.708314465288	1083.085842339330	234.124080158375	887.703691129372	820.508055645841	239.446459749387	1083.386572195983	1107.972810860242	803.372597821030	1292.984387352609	977.372254388643	731.590963435215	
